<?xml version="1.0" encoding="utf-8"?>
<?xml-stylesheet type="text/xsl" href="rss1.xsl"?>
<rss version="2.0" xmlns:atom="http://www.w3.org/2005/Atom" xmlns:content="http://purl.org/rss/1.0/modules/content/" xmlns:dc="http://purl.org/dc/elements/1.1/" xmlns:media="http://search.yahoo.com/mrss/">
<channel>
 <title>sharemania</title>
 <link>http://www.sharemania.us/</link>
 <atom:link href="http://www.gettyimg.com/" rel="self" type="application/rss+xml" />

 
                <item>
                <title><![CDATA[【HD Live Performances】FEED - Dead &amp; Company Live In IMAX From Golden Gate Park (2025) Day 2 2160p HLG UHDTV Backhaul FLAC 5.1 HEVC-TrollUHD]]></title>
                <link><![CDATA[https://sharemania.us/threads/dead-company-live-in-imax-from-golden-gate-park-2025-day-2-2160p-hlg-uhdtv-backhaul-flac-5-1-hevc-trolluhd.281912/]]></link>
                <description><![CDATA[<article>
				<blockquote class="messageText SelectQuoteContainer ugc baseHtml">
					
					<div style="padding-left: 30px"><div style="padding-left: 30px"><div style="padding-left: 30px"><div style="padding-left: 30px"><b><span style="font-size: 26px"><span style="color: #ff4d4d">Dead &amp; Company Live In IMAX From </span></span></b><br>
<div style="padding-left: 30px"><b><span style="font-size: 26px"><span style="color: #ff4d4d">Golden Gate Park (2025) Day 2 <br>
2160p HLG UHDTV BACKHAUL</span></span></b><br>
<div style="padding-left: 30px"><b><span style="font-size: 26px"><span style="color: #ff4d4d"> FLAC 5.1 HEVC-TrollUHD</span></span></b>​</div></div></div></div></div></div><img src="https://images2.imgbox.com/53/d5/fnaeJQyA_o.jpg" class="bbCodeImage LbImage" alt="[​IMG]" data-url="https://images2.imgbox.com/53/d5/fnaeJQyA_o.jpg" style=""><br>
<br>
<br>


<div class="bbCodeBlock bbCodeCode">
	<div class="type">Code:</div>
	<pre>General
Unique ID                      : 125681388017500105674951832298005792065 (0x5E8D5AD855AE7D6AE2D0153279490541)
Format                         : Matroska
Format version                 : Version 4
File size                      : 59.6 GiB
Duration                       : 3 h 3 min
Overall bit rate mode          : Variable
Overall bit rate               : 46.6 Mb/s
Encoded date                   : UTC 2025-08-04 19:17:06
Writing application            : mkvmerge v90.0 ('Hanging On') 64-bit
Writing library                : libebml v1.4.5 + libmatroska v1.7.1

Video
ID                             : 1
Format                         : HEVC
Format/Info                    : High Efficiency Video Coding
Format profile                 : Format Range@L5.1@High
Codec ID                       : V_MPEGH/ISO/HEVC
Duration                       : 3 h 2 min
Bit rate                       : 44.9 Mb/s
Width                          : 3 840 pixels
Height                         : 2 160 pixels
Display aspect ratio           : 16:9
Frame rate mode                : Constant
Frame rate                     : 59.940 (60000/1001) FPS
Standard                       : Component
Color space                    : YUV
Chroma subsampling             : 4:2:2
Bit depth                      : 10 bits
Bits/(Pixel*Frame)             : 0.090
Stream size                    : 57.5 GiB (96%)
Default                        : Yes
Forced                         : No
Color range                    : Limited
Color primaries                : BT.2020
Transfer characteristics       : HLG / HLG
Matrix coefficients            : BT.2020 non-constant

Audio #1
ID                             : 2
Format                         : FLAC
Format/Info                    : Free Lossless Audio Codec
Codec ID                       : A_FLAC
Duration                       : 3 h 2 min
Bit rate mode                  : Variable
Bit rate                       : 1 298 kb/s
Channel(s)                     : 6 channels
Channel layout                 : L R C LFE Ls Rs
Sampling rate                  : 48.0 kHz
Frame rate                     : 11.719 FPS (4096 SPF)
Bit depth                      : 16 bits
Compression mode               : Lossless
Delay relative to video        : -1 s 230 ms
Stream size                    : 1.66 GiB (3%)
Writing library                : libFLAC 1.4.2 (UTC 2022-10-22)
Language                       : English
Default                        : Yes
Forced                         : No

Audio #2
ID                             : 3
Format                         : MPEG Audio
Format version                 : Version 1
Format profile                 : Layer 2
Codec ID                       : A_MPEG/L2
Codec ID/Hint                  : MP2
Duration                       : 3 h 2 min
Bit rate mode                  : Constant
Bit rate                       : 384 kb/s
Channel(s)                     : 2 channels
Sampling rate                  : 48.0 kHz
Frame rate                     : 41.666 FPS (1152 SPF)
Compression mode               : Lossy
Delay relative to video        : -1 s 230 ms
Stream size                    : 503 MiB (1%)
Language                       : English
Default                        : No
Forced                         : No

</pre>
</div>



<div class="bbCodeBlock bbCodeVfcHH HiddenContent">
	<div class="attribution type">Hidden Content:</div>
	<blockquote>You must either reply or click 'Like' to see the hidden information contained here.</blockquote>
</div><br>
<br>
<b><span style="font-size: 18px"><span style="color: #ff4d4d">Credits goes to <a href="https://sharemania.us/members/1219/" class="username" data-user="1219, @TrollHD">@TrollHD</a> !!!<br>
<br>
<img src="styles/default/xenforo/smilies/super_man-48.png" class="mceSmilie" alt=":super:" title="Super Man    :super:"><img src="styles/default/xenforo/smilies/super_man-48.png" class="mceSmilie" alt=":super:" title="Super Man    :super:"><img src="styles/default/xenforo/smilies/super_man-48.png" class="mceSmilie" alt=":super:" title="Super Man    :super:"></span></span></b>
					<div class="messageTextEndMarker">&nbsp;</div>
				</blockquote>
			</article>]]></description>
                <author><![CDATA[Dream66]]></author>
                </item>

                
                <item>
                <title><![CDATA[【Requests】[REQ AUD] - somebody share these Shreya Ghoshal apple music albums in lossless audio please!]]></title>
                <link><![CDATA[https://sharemania.us/threads/somebody-share-these-shreya-ghoshal-apple-music-albums-in-lossless-audio-please.281911/]]></link>
                <description><![CDATA[<article>
				<blockquote class="messageText SelectQuoteContainer ugc baseHtml">
					
					<a href="https://music.apple.com/us/album/bollywood-best-duet-songs-sonu-nigam-shreya-ghoshal/1790158090" target="_blank" class="externalLink" rel="nofollow">https://music.apple.com/us/album/bollywood-best-duet-songs-sonu-nigam-shreya-ghoshal/1790158090</a><br>
<a href="https://music.apple.com/us/album/humnasheen/1812931034" target="_blank" class="externalLink" rel="nofollow">https://music.apple.com/us/album/humnasheen/1812931034</a><br>
<a href="https://music.apple.com/us/album/best-of-shreya-ghoshal/1739730621" target="_blank" class="externalLink" rel="nofollow">https://music.apple.com/us/album/best-of-shreya-ghoshal/1739730621</a><br>
<a href="https://music.apple.com/us/album/melodies-for-the-melody-queen-shreya-ghoshal/1735504155" target="_blank" class="externalLink" rel="nofollow">https://music.apple.com/us/album/melodies-for-the-melody-queen-shreya-ghoshal/1735504155</a><br>
<a href="https://music.apple.com/us/album/soulful-kk-lofi-mix/1703358320" target="_blank" class="externalLink" rel="nofollow">https://music.apple.com/us/album/soulful-kk-lofi-mix/1703358320</a><br>
<a href="https://music.apple.com/us/album/mon-kemoner-station/1019579264" target="_blank" class="externalLink" rel="nofollow">https://music.apple.com/us/album/mon-kemoner-station/1019579264</a><br>
<a href="https://music.apple.com/us/album/jabo-tepantar/1668922435" target="_blank" class="externalLink" rel="nofollow">https://music.apple.com/us/album/jabo-tepantar/1668922435</a><br>
<a href="https://music.apple.com/us/album/e-akash-tomari/1137115964" target="_blank" class="externalLink" rel="nofollow">https://music.apple.com/us/album/e-akash-tomari/1137115964</a><br>
<br>
thank you so much!
					<div class="messageTextEndMarker">&nbsp;</div>
				</blockquote>
			</article>]]></description>
                <author><![CDATA[upeksha]]></author>
                </item>

                </channel></rss>